<?xml version="1.0" encoding="UTF-8" standalone="no"?>
<svg
   id="Layer_2"
   data-name="Layer 2"
   viewBox="0 0 681.82 706.35"
   version="1.1"
   sodipodi:docname="icon.svg"
   inkscape:version="1.3.2 (091e20e, 2023-11-25, custom)"
   xmlns:inkscape="http://www.inkscape.org/namespaces/inkscape"
   xmlns:sodipodi="http://sodipodi.sourceforge.net/DTD/sodipodi-0.dtd"
   xmlns="http://www.w3.org/2000/svg"
   xmlns:svg="http://www.w3.org/2000/svg">
  <sodipodi:namedview
     id="namedview6"
     pagecolor="#505050"
     bordercolor="#eeeeee"
     borderopacity="1"
     inkscape:showpageshadow="0"
     inkscape:pageopacity="0"
     inkscape:pagecheckerboard="0"
     inkscape:deskcolor="#505050"
     inkscape:zoom="1.1000213"
     inkscape:cx="340.9025"
     inkscape:cy="353.17499"
     inkscape:window-width="1920"
     inkscape:window-height="991"
     inkscape:window-x="-9"
     inkscape:window-y="-9"
     inkscape:window-maximized="1"
     inkscape:current-layer="Layer_2" />
  <defs
     id="defs1">
    <style
       id="style1">
      .cls-1 {
        fill: #fff;
      }
    </style>
  </defs>
  <g
     id="g6">
    <path
       class="cls-1"
       d="m341.47,520.02c-42.54,60.22-100.19,88.7-172.1,84.47-46.59-2.74-86.86-23.38-118.27-57.76C12.57,504.55-5.69,454.58,1.56,396.71c7.23-57.66,37.38-100.88,83.92-133.5C52.56,223.95,29.81,179.52,15.44,130.65c-.18-.62.37-1.46.74-2.73,5.68,5.32,10.87,10.48,16.37,15.27,22.52,19.64,47.01,36.52,73.7,49.89,17.19,8.61,34.86,16.41,52.78,23.35,13.08,5.06,26.86,8.43,40.48,12,13.85,3.64,27.81,6.97,41.85,9.75,10.18,2.01,20.56,3.02,30.88,4.27,12.35,1.5,24.71,3.24,37.11,4.05,10.37.67,20.82.26,31.23.14,11.68-.14,23.38-.15,35.04-.84,10.83-.64,21.69-1.61,32.4-3.3,18.57-2.94,37.17-5.93,55.51-10.03,33.12-7.41,65.1-18.39,95.73-33.17,25.62-12.36,50-26.69,72.09-44.71,10.19-8.32,20.19-16.87,29.93-25.02,1.34,5.98-15.17,52.41-25.24,69.29-12.78,21.42-24.7,43.43-42.39,62.17,62.83,41.41,92.72,99.94,87.61,174.75-3.06,44.84-21.92,83.61-53.99,115.51-26.65,26.51-58.88,42.78-95.44,50.35-36.68,7.6-72.58,3.44-106.67-11.48-34.15-14.94-62.53-37.7-83.68-70.14Zm-31.48-100.98c.1-39.36-18.47-72.88-41.88-92.79-28.4-24.16-60.91-33.96-97.8-30.29-52.36,5.2-113.49,54.66-109.75,129.85,2.96,59.58,53.82,123.96,134.9,117.87,60.77-4.57,114.65-54.18,114.53-124.63Zm187.88,125.23c32.01-.71,61.3-11.94,85.41-34.83,27.06-25.69,39.22-57.98,38.17-95.11-1.69-59.71-51.31-122.67-132.83-119.05-60.24,2.67-113.36,53.32-116.63,117.19-1.76,34.44,9.09,64.97,32.71,90.47,24.73,26.7,55.36,40.5,93.16,41.33Z"
       id="path1" />
    <path
       class="cls-1"
       d="m96.66,75.03c11.34-3.91,21.81-7.62,32.35-11.14,27.17-9.08,54.35-18.14,81.56-27.1C247.77,24.54,284.96,12.29,322.27.4c3.22-1.03,7.5.09,10.97,1.22,24.07,7.8,48.05,15.89,72.08,23.83,27.11,8.97,54.24,17.87,81.35,26.83,16.12,5.33,32.23,10.66,48.3,16.11,5.74,1.95,11.36,4.27,17.96,6.78-10.34,3.98-19.75,7.6-29.16,11.22-39.63,15.26-79.25,30.51-118.88,45.78-25.4,9.79-50.76,19.7-76.25,29.26-2.68,1-6.4.72-9.17-.27-12.07-4.34-23.99-9.12-35.94-13.82-13.5-5.31-26.93-10.8-40.47-16.02-18.18-7-36.44-13.77-54.64-20.72-8.37-3.19-16.64-6.63-25-9.85-18.99-7.32-38-14.58-57-21.88-3-1.15-5.99-2.36-9.77-3.85Z"
       id="path2" />
    <path
       class="cls-1"
       d="m198.67,132.05c2.02.45,4.2.66,6.17,1.42,12.75,4.94,25.44,10.04,38.18,15.01,13.18,5.14,26.37,10.26,39.6,15.27,13.4,5.08,26.82,10.15,40.35,14.88,2.07.72,4.98.08,7.18-.76,32.12-12.3,64.18-24.75,96.26-37.15,7.73-2.99,15.45-5.97,23.2-8.9.68-.26,1.54-.03,2.77-.03,0,11.75,0,23.26,0,34.77,0,15.17-.08,30.33.08,45.49.03,2.97-.84,4.1-3.77,4.71-15.93,3.31-31.88,6.34-48.14,7.49-10.42.74-20.83,2.04-31.26,2.32-21.79.58-43.61,1-65.4.78-9.11-.09-18.21-1.92-27.3-3.08-8.26-1.05-16.54-2.07-24.75-3.46-10.53-1.79-21.02-3.83-31.49-5.95-5.88-1.19-11.7-2.73-17.53-4.16-2.67-.65-4.74-1.47-4.72-5.13.17-24.07.1-48.14.12-72.2,0-.25.17-.51.46-1.32Z"
       id="path3" />
    <path
       class="cls-1"
       d="m340.97,706.35c-4.3-7.13-8.02-13.16-11.61-19.25-13.84-23.52-27.61-47.09-41.52-70.57-1.52-2.57-1.52-4.18.65-6.46,16.02-16.81,31.88-33.76,47.76-50.69,1.41-1.51,2.59-3.23,4.22-5.28,1.16.84,2.56,1.56,3.58,2.64,16.57,17.62,33.05,35.32,49.66,52.89,2.47,2.61,2.34,4.46.46,7.5-8.26,13.33-16.18,26.89-24.18,40.38-6.08,10.26-12.09,20.57-18.17,30.84-3.37,5.68-6.82,11.32-10.86,18.01Z"
       id="path4" />
    <path
       class="cls-1"
       d="m135.91,397.39c4.63,1.92,8.83,4.92,13.15,5.12,5.23.24,10.45-1.99,14.26-6.38,6.39-7.37,6.39-15.26-.23-25.31,14.64-8.05,43.7-7.2,61.48,11.43,19.5,20.43,18.45,52.96,2.23,72.11-17.5,20.65-47.26,26.59-72.14,9.38-20.89-14.45-29.72-45.79-18.74-66.34Z"
       id="path5" />
    <path
       class="cls-1"
       d="m546.35,397.35c9.86,24.68,2.42,53.04-18.74,66.71-24.37,15.75-50.38,12.7-70.46-8.13-16.45-17.07-20.43-46.72-4.34-67.7,16.71-21.79,42.14-28.04,66.72-17.48-5.76,5.97-8,12.96-3.76,20.34,7.58,13.16,18.15,15.39,30.57,6.26Z"
       id="path6" />
  </g>
</svg>
